<?xml version="1.0" encoding="UTF-8"?>
<svg width="658px" height="656px" viewBox="0 0 658 656" version="1.1" xmlns="http://www.w3.org/2000/svg" xmlns:xlink="http://www.w3.org/1999/xlink">
    <!-- Generator: Sketch 64 (93537) - https://sketch.com -->
    <title>Group 5 Copy</title>
    <desc>Created with Sketch.</desc>
    <defs>
        <linearGradient x1="81.7341574%" y1="42.4020304%" x2="26.2989335%" y2="53.7637532%" id="linearGradient-1">
            <stop stop-color="#FFE2C4" offset="0%"></stop>
            <stop stop-color="#FFB870" offset="100%"></stop>
        </linearGradient>
        <linearGradient x1="96.5181687%" y1="46.1631249%" x2="2.30976118%" y2="56.4024963%" id="linearGradient-2">
            <stop stop-color="#FFB870" offset="0%"></stop>
            <stop stop-color="#FFE2C4" offset="100%"></stop>
        </linearGradient>
        <linearGradient x1="67.9893763%" y1="45.4271174%" x2="30.7370213%" y2="54.8630172%" id="linearGradient-3">
            <stop stop-color="#FFB870" offset="0%"></stop>
            <stop stop-color="#FFE2C4" offset="100%"></stop>
        </linearGradient>
        <linearGradient x1="0.0140252312%" y1="50.0015954%" x2="100%" y2="50.0015954%" id="linearGradient-4">
            <stop stop-color="#FFB870" offset="0%"></stop>
            <stop stop-color="#FFE2C4" offset="100%"></stop>
        </linearGradient>
        <linearGradient x1="0%" y1="50.0150475%" x2="99.9839661%" y2="50.0150475%" id="linearGradient-5">
            <stop stop-color="#FFE2C4" offset="0%"></stop>
            <stop stop-color="#FFB870" offset="100%"></stop>
        </linearGradient>
        <linearGradient x1="-0.00286376241%" y1="50.0063081%" x2="99.9872295%" y2="50.0063081%" id="linearGradient-6">
            <stop stop-color="#FFE2C4" offset="0%"></stop>
            <stop stop-color="#FFB870" offset="100%"></stop>
        </linearGradient>
        <linearGradient x1="19.8352496%" y1="42.4047731%" x2="75.2810136%" y2="53.7663798%" id="linearGradient-7">
            <stop stop-color="#FFE2C4" offset="0%"></stop>
            <stop stop-color="#FFB870" offset="100%"></stop>
        </linearGradient>
        <linearGradient x1="32.0200954%" y1="45.4748728%" x2="69.1971198%" y2="54.839328%" id="linearGradient-8">
            <stop stop-color="#FFB870" offset="0%"></stop>
            <stop stop-color="#FFE2C4" offset="100%"></stop>
        </linearGradient>
        <linearGradient x1="0%" y1="50.0025311%" x2="99.9921659%" y2="50.0025311%" id="linearGradient-9">
            <stop stop-color="#FFB870" offset="0%"></stop>
            <stop stop-color="#FFE2C4" offset="100%"></stop>
        </linearGradient>
    </defs>
    <g id="Page-1" stroke="none" stroke-width="1" fill="none" fill-rule="evenodd">
        <g id="1_Enseignant_Desktop_Authentification" transform="translate(-707.000000, -287.000000)" fill-rule="nonzero">
            <g id="Group-5-Copy" transform="translate(707.000000, 287.000000)">
                <polyline id="Path" fill="#D6EAF2" style="mix-blend-mode: multiply;" points="222.226212 302.441727 0 435.242256 138.060864 515.100362 313.567242 444.736518 222.950195 308.526852"></polyline>
                <path d="M335.983231,398.374095 L335.983231,398.374095 L335.983231,387.642646 L328.257688,391.528329 L314.758607,383.683649 C310.341393,381.135961 303.174875,381.135961 298.766825,383.683649 L162.456351,462.359554 L154.69415,458.57468 L154.69415,469.20532 L154.69415,469.20532 C154.520028,471.038189 155.610585,472.825237 157.974986,474.190724 L175.964596,484.583092 C180.381811,487.13078 187.539164,487.13078 191.956379,484.583092 L332.702396,403.322841 C335.039304,401.948189 336.129861,400.151978 335.983231,398.374095 Z" id="Path" fill="#55C3FE"></path>
                <path d="M162.456351,462.359554 L154.69415,458.57468 L154.69415,469.20532 L154.69415,469.20532 C154.520028,471.038189 155.610585,472.825237 157.974986,474.190724 L175.964596,484.583092 C178.35648,485.853193 181.027894,486.505295 183.735961,486.480111 L183.735961,450.070167 L162.456351,462.359554 Z" id="Path" fill="#179ECC"></path>
                <path d="M175.964596,473.210139 C180.381811,475.766992 187.539164,475.766992 191.956379,473.210139 L332.702396,391.949889 C337.110446,389.393036 337.110446,385.269081 332.702396,382.721393 L314.758607,372.338189 C310.341393,369.790501 303.174875,369.790501 298.766825,372.338189 L157.974986,453.625933 C153.557772,456.173621 153.557772,460.306741 157.974986,462.854429 L175.964596,473.210139 Z" id="Path" fill="#97DFFF"></path>
                <polygon id="Path" fill="#179ECC" points="218.597131 445.167242 208.782117 439.613649 208.782117 389.420529 272.080251 352.882284"></polygon>
                <polygon id="Path" fill="#35AFE5" points="281.8861 408.628997 218.597131 445.167242 218.597131 394.974123 281.8861 358.435877"></polygon>
                <path d="M386.139694,93.3388579 L376.929526,88.0785237 C376.73919,87.9313491 376.529496,87.8110832 376.306351,87.7211142 L376.306351,87.7211142 C375.189763,87.3940574 373.985319,87.5858264 373.025515,88.2434819 L108.175933,241.168914 C105.1397,243.148358 103.229838,246.457424 103.034735,250.076657 L103.034735,453.525125 C103.034735,455.174708 103.612089,456.329415 104.537688,456.860947 C104.676982,456.934279 104.820854,456.998563 104.968412,457.053398 L114.132758,462.313733 L116.038942,452.407075 L113.289638,453.543454 L373.043844,303.578106 C376.07928,301.593644 377.98842,298.282427 378.185042,294.661198 L378.185042,98.8832869 L386.139694,93.3388579 Z" id="Path" fill="#35AFE5"></path>
                <path d="M376.929526,88.0785237 C376.73919,87.9313491 376.529496,87.8110832 376.306351,87.7211142 L376.306351,87.7211142 C375.189763,87.3940574 373.985319,87.5858264 373.025515,88.2434819 L108.175933,241.168914 C106.849491,241.982386 105.727144,243.089057 104.895097,244.403928 L281.959415,356.098969 L373.007187,303.532284 C376.042623,301.547823 377.951762,298.236605 378.148384,294.615376 L378.148384,98.8832869 L386.130529,93.3388579 L376.929526,88.0785237 Z" id="Path" fill="#97DFFF"></path>
                <path d="M387.679304,300.058997 C387.479828,303.676931 385.571026,306.98416 382.538106,308.966741 L117.661031,461.873844 C114.820084,463.505097 112.519833,462.185432 112.519833,458.904596 L112.519833,255.456128 C112.714935,251.836895 114.624797,248.527829 117.661031,246.548384 L382.510613,93.6229526 C385.35156,91.9825348 387.651811,93.3205292 387.651811,96.5922006 L387.679304,300.058997 Z" id="Path" fill="#55C3FE"></path>
                <polygon id="Path" fill="#E6F7FF" points="382.684735 285.157772 117.514401 438.248162 117.514401 255.153705 382.684735 102.063315"></polygon>
                <polygon id="Path" fill="#FFFFFF" points="380.082061 103.557103 380.082061 283.141616 117.514401 434.729053 117.514401 438.248162 382.684735 285.157772 382.684735 102.063315"></polygon>
                <polygon id="Path" fill="#CBE9F4" points="357.867688 147.051086 252.166128 208.076462 252.166128 202.01883 357.867688 140.993454"></polygon>
                <polygon id="Path" fill="#CBE9F4" points="357.867688 157.865014 192.799499 253.165042 192.799499 247.107409 357.867688 151.807382"></polygon>
                <polygon id="Path" fill="#CBE9F4" points="357.867688 168.678942 192.799499 263.988134 192.799499 257.930501 357.867688 162.630474"></polygon>
                <polygon id="Path" fill="#CBE9F4" points="357.867688 179.502033 192.799499 274.802061 192.799499 268.744429 357.867688 173.444401"></polygon>
                <polygon id="Path" fill="#CBE9F4" points="357.867688 190.315961 192.799499 285.625153 192.799499 279.567521 357.867688 184.258329"></polygon>
                <polygon id="Path" fill="#CBE9F4" points="357.867688 201.139053 192.799499 296.439081 192.799499 290.381448 357.867688 195.081421"></polygon>
                <polygon id="Path" fill="#CBE9F4" points="357.867688 222.776072 252.166128 283.801448 252.166128 277.743816 357.867688 216.71844"></polygon>
                <polygon id="Path" fill="#CBE9F4" points="357.867688 233.59 192.799499 328.890028 192.799499 322.84156 357.867688 227.532368"></polygon>
                <polygon id="Path" fill="#CBE9F4" points="357.867688 244.403928 192.799499 339.71312 192.799499 333.655487 357.867688 238.35546"></polygon>
                <polygon id="Path" fill="#CBE9F4" points="357.867688 255.227019 192.799499 350.527047 192.799499 344.469415 357.867688 249.169387"></polygon>
                <polygon id="Path" fill="#CBE9F4" points="357.867688 266.040947 192.799499 361.350139 192.799499 355.292507 357.867688 259.983315"></polygon>
                <polygon id="Path" fill="#CBE9F4" points="271.95195 326.461476 192.799499 372.164067 192.799499 366.106435 271.95195 320.403844"></polygon>
                <polygon id="Path" fill="#144682" points="613.672061 457.401643 471.643036 375.408245 444.195822 181.921421 471.643036 166.232061 613.672061 248.234624"></polygon>
                <polygon id="Path" fill="#FFFFFF" points="606.606351 453.763398 582.779053 465.933649 444.809833 189.00546 471.019861 174.030919 606.606351 252.303593"></polygon>
                <polygon id="Path" fill="#2D5CA0" points="586.215682 473.091003 444.195822 391.097604 444.195822 181.921421 586.215682 263.914819"></polygon>
                <polygon id="Path" fill="#1890C6" points="581.670167 475.913621 439.641142 393.920223 412.184763 200.433398 439.641142 184.744039 581.670167 266.737437"></polygon>
                <polygon id="Path" fill="#FFFFFF" points="574.604457 472.275376 550.777159 484.445627 412.807939 207.517437 439.017967 192.542897 574.604457 270.815571"></polygon>
                <polygon id="Path" fill="#55C3FE" points="554.213788 491.602981 412.184763 409.609582 412.184763 200.433398 554.213788 282.426797"></polygon>
                <polygon id="Path" fill="#C4DDE8" style="mix-blend-mode: multiply;" points="412.184763 409.609582 412.184763 200.433398 554.213788 282.426797"></polygon>
                <polygon id="Path" fill="#EA4266" points="448.429749 209.377799 436.351142 202.550362 436.351142 176.853538 442.390446 185.422201 448.429749 181.454039"></polygon>
                <polygon id="Path" fill="#D6EAF2" style="mix-blend-mode: multiply;" points="321.93429 590.302981 208.95624 525.080334 159.642897 498.430418 336.010724 400.47273 536.664067 487.607326 359.013231 590.321309"></polygon>
                <polygon id="Path" fill="#144682" points="357.510279 588.479276 225.9561 512.534345 225.9561 483.052646 402.4339 410.645153 533.978914 486.590084"></polygon>
                <polygon id="Path" fill="#E5E5E5" points="402.4339 401.16922 232.499443 480.019248 232.499443 506.834123 357.510279 579.003343 533.978914 477.11415"></polygon>
                <polygon id="Path" fill="#F4F4F4" points="402.4339 394.31429 374.262702 407.391811 374.262702 491.81376 232.499443 491.81376 232.499443 499.979192 357.510279 572.148412 533.978914 470.25922"></polygon>
                <polygon id="Path" fill="#FFFFFF" points="402.4339 388.027549 374.262702 401.10507 374.262702 491.81376 232.499443 491.81376 232.499443 493.701616 357.510279 565.870836 533.978914 463.981643"></polygon>
                <polygon id="Path" fill="#2D5CA0" points="357.510279 558.997577 225.9561 483.052646 402.4339 381.163454 533.978914 457.108384"></polygon>
                <polygon id="Path" fill="#1890C6" points="357.922674 548.467744 232.939331 476.307688 232.939331 448.292284 400.610195 379.504708 525.584373 451.664763"></polygon>
                <polygon id="Path" fill="#E5E5E5" points="400.610195 370.496156 239.152758 445.41468 239.152758 470.89156 357.922674 539.459192 525.584373 442.656212"></polygon>
                <polygon id="Path" fill="#F4F4F4" points="400.610195 363.989471 373.841142 376.407159 373.841142 456.622674 239.152758 456.622674 239.152758 464.37571 357.922674 532.952507 525.584373 436.149526"></polygon>
                <polygon id="Path" fill="#FFFFFF" points="400.610195 358.023482 373.841142 370.44117 373.841142 456.622674 239.152758 456.622674 239.152758 458.409721 357.922674 526.986518 525.584373 430.174373"></polygon>
                <polygon id="Path" fill="#55C3FE" points="357.922674 520.45234 232.939331 448.292284 400.610195 351.489304 525.584373 423.649359"></polygon>
                <polygon id="Path" fill="#EA4266" points="358.866602 513.249164 239.391031 444.278301 239.391031 417.500084 399.666267 351.745905 519.132674 420.716769"></polygon>
                <polygon id="Path" fill="#E5E5E5" points="399.666267 343.140585 245.338691 414.75078 245.338691 439.100446 358.866602 504.643844 519.132674 412.111448"></polygon>
                <polygon id="Path" fill="#F4F4F4" points="399.666267 336.917994 374.079415 348.785822 374.079415 425.4639 245.338691 425.4639 245.338691 432.877855 358.866602 498.421253 519.132674 405.888858"></polygon>
                <polygon id="Path" fill="#FFFFFF" points="399.666267 331.208607 374.079415 343.085599 374.079415 425.4639 245.338691 425.4639 245.338691 427.168468 358.866602 492.711866 519.132674 400.188635"></polygon>
                <polygon id="Path" fill="#FE7386" points="358.866602 486.480111 239.391031 417.500084 399.666267 324.967688 519.132674 393.947716"></polygon>
                <polygon id="Path" fill="#EF92A9" style="mix-blend-mode: multiply;" points="239.391031 417.500084 334.260334 472.266212 413.403621 426.572786 318.543482 371.806657"></polygon>
                <polygon id="Path" fill="#EF92A9" style="mix-blend-mode: multiply;" points="310.94624 376.196379 399.666267 324.967688 464.751448 362.541504"></polygon>
                <path d="M550.749666,198.710501 C546.616546,192.680362 551.592786,150.863454 545.645125,147.124401 C545.710576,146.109349 545.676814,145.090332 545.544318,144.081838 C546.964791,143.779415 517.217326,108.872423 511.260501,114.325209 C505.303677,119.777994 509.959164,128.988162 509.959164,128.988162 C509.959164,128.988162 510.316574,130.5461 507.952173,131.563343 C509.160578,132.023416 510.460225,132.192935 511.746212,132.058217 C511.746212,132.415627 511.837855,132.773036 511.892841,133.148774 L511.892841,133.148774 C512.219542,135.411433 512.672355,137.65408 513.249164,139.86624 C513.908997,142.432256 514.468022,144.778329 514.981226,146.93195 C514.724624,147.179387 514.468022,147.41766 514.220585,147.683426 C514.138106,147.683426 514.119777,147.793398 514.119777,147.793398 C513.963983,147.967521 513.844847,148.159972 513.689053,148.334095 C513.377465,148.718997 513.056713,149.085571 512.772618,149.507131 C502.141978,163.253649 505.615265,179.34624 499.081086,184.771532 C495.080894,188.198674 490.58534,191.001057 485.746964,193.083593 L477.150808,195.090585 L465.053872,171.978106 L465.292145,179.153788 L465.053872,178.823872 L465.777855,197.409164 L465.777855,197.409164 C462.689471,197.702423 460.279248,207.489944 465.402117,210.422535 C465.713705,210.605822 476.655933,211.384791 476.940028,211.476435 L478.617103,223.820808 L478.113064,235.734457 C471.413928,241.810418 465.622061,248.637855 464.054958,255.043733 C459.784373,272.538468 461.305655,313.072368 461.305655,313.072368 L461.488942,313.374791 C459.371978,314.99688 451.811393,320.889554 449.978524,323.547214 C449.807183,323.794585 449.674319,324.066493 449.584457,324.353677 L449.584457,324.353677 C449.251166,325.401494 449.729111,326.536129 450.711671,327.029666 L450.711671,327.029666 C450.842314,327.104157 450.976924,327.171462 451.114903,327.231281 L451.325682,327.332089 L451.719749,327.46039 L452.05883,327.552033 L452.452897,327.625348 L452.892786,327.689499 L453.305181,327.689499 L453.827549,327.689499 L454.267437,327.689499 L454.872284,327.625348 L455.330501,327.561198 L456.008663,327.423733 L456.476045,327.31376 C456.723482,327.24961 456.980084,327.167131 457.236685,327.084652 C457.401146,327.041058 457.563262,326.989058 457.722396,326.928858 L458.63883,326.589777 C458.78546,326.525627 458.932089,326.479805 459.078719,326.40649 C459.527772,326.214039 459.995153,325.994095 460.471699,325.737493 C468.426351,321.540223 470.121755,320.431337 471.670529,319.55156 C471.901155,319.417696 472.111078,319.250992 472.293705,319.056685 L472.403677,318.928384 C472.551734,318.756887 472.663916,318.557453 472.733593,318.341866 C472.796894,318.11498 472.830774,317.880899 472.834401,317.645376 C472.834401,317.59039 472.834401,317.544568 472.834401,317.498747 C472.834152,317.161709 472.812726,316.825019 472.770251,316.490669 L473.12766,316.334875 L479.817632,256.995738 C479.817632,256.995738 490.594903,274.692089 498.494568,271.493733 C493.445014,277.752981 494.599721,269.78 493.683287,276.405822 C491.218078,294.239638 491.172256,333.041476 491.172256,333.041476 C491.256168,333.137529 491.344869,333.229289 491.438022,333.316407 C488.844513,335.314234 482.09039,340.647883 480.376657,343.131421 C480.209711,343.38003 480.080037,343.651729 479.991755,343.937883 L479.991755,343.937883 C479.644554,344.983898 480.121642,346.125783 481.109805,346.613872 L481.109805,346.613872 C481.237487,346.693767 481.372511,346.761279 481.513036,346.815487 L481.732981,346.92546 L482.117883,347.044596 C482.228084,347.084775 482.341526,347.115435 482.456964,347.13624 C482.586361,347.170233 482.718066,347.194737 482.851031,347.209554 L483.300084,347.273705 L483.703315,347.273705 L484.234847,347.273705 L484.665571,347.273705 C484.868399,347.265932 485.070472,347.2445 485.270418,347.209554 L485.728635,347.145404 L486.406797,347.017103 L486.883343,346.897967 L487.643983,346.678022 L488.120529,346.522228 C488.413788,346.421421 488.707047,346.302284 489.036964,346.173983 L489.467688,345.999861 C489.925905,345.798245 490.384123,345.578301 490.869833,345.321699 C498.824485,341.124429 500.510724,340.024708 502.059499,339.135766 C502.293361,339.002643 502.506413,338.835907 502.691838,338.640891 L502.801811,338.521755 C502.944766,338.344818 503.053536,338.142817 503.122563,337.926072 L503.122563,337.926072 C503.193926,337.69759 503.230987,337.459781 503.232535,337.220418 C503.232535,337.174596 503.232535,337.11961 503.232535,337.073788 C503.200928,336.294118 503.124432,335.516916 503.003426,334.746045 C502.945627,334.492889 502.799394,334.268666 502.591031,334.113705 C502.985097,333.820446 510.683148,257.692228 510.683148,257.692228 C510.683148,257.692228 542.272646,243.542479 546.62571,241.196407 C567.300474,229.896769 550.749666,198.710501 550.749666,198.710501 Z" id="Path" fill="#E2E2E2" style="mix-blend-mode: multiply;"></path>
                <path d="M505.037911,128.58493 C505.037911,128.58493 505.212033,126.889526 509.794206,137.052786 C514.376379,147.216045 503.379164,179.703649 500.758162,183.268579 C498.137159,186.83351 465.411281,196.859304 458.208106,185.742953 C462.707799,183.433538 458.3639,180.116045 459.243677,174.919861 C472.614457,179.602841 485.893593,168.953872 489.980891,165.563064 C496.799164,159.917827 492.693538,142.652201 505.037911,128.58493 Z" id="Path" fill="#C7EBF9"></path>
                <path d="M452.929443,293.726435 C452.929443,293.726435 442.986128,301.241198 440.850836,304.338747 C438.715543,307.436295 443.361866,310.753788 451.316518,306.547354 C459.27117,302.340919 460.966574,301.241198 462.515348,300.361421 C464.064123,299.481643 463.761699,298.226128 463.431783,295.935042 C463.101866,293.643955 452.929443,293.726435 452.929443,293.726435 Z" id="Path" fill="#FFFFFF"></path>
                <path d="M462.515348,298.940947 C460.966574,299.857382 459.27117,300.92961 451.316518,305.12688 C445.332201,308.279415 441.235738,307.188858 440.465933,305.12688 C439.549499,307.93117 444.049192,310.359721 451.316518,306.529025 C459.27117,302.331755 460.966574,301.222869 462.515348,300.343092 C463.697549,299.66493 463.798357,298.766825 463.651727,297.373844 C463.550854,298.050148 463.126821,298.634903 462.515348,298.940947 L462.515348,298.940947 Z" id="Path" fill="#4C4C4C"></path>
                <path d="M538.047883,198.206462 C538.047883,198.206462 537.681309,220.677437 517.840501,225.562033 C497.999694,230.44663 477.013343,240.554903 477.013343,240.554903 L463.981643,297.108078 C462.238509,297.934101 460.297744,298.251739 458.382228,298.024513 C455.793174,297.668328 453.510169,296.145199 452.187131,293.891393 C452.187131,293.891393 450.656685,253.357493 454.936435,235.862758 C459.216184,218.368022 494.938802,197.766574 494.938802,197.766574 L538.047883,198.206462 Z" id="Path" fill="#112F5B"></path>
                <path d="M483.318412,313.292312 C483.318412,313.292312 473.375097,320.807075 471.239805,323.904624 C469.104513,327.002173 473.741671,330.319666 481.696323,326.113231 C489.650975,321.906797 491.346379,320.807075 492.895153,319.927298 C494.443928,319.047521 494.150669,317.792006 493.811588,315.510084 C493.472507,313.228162 483.318412,313.292312 483.318412,313.292312 Z" id="Path" fill="#FFFFFF"></path>
                <path d="M492.895153,318.506825 C491.346379,319.423259 489.650975,320.495487 481.696323,324.692758 C475.72117,327.845292 471.615543,326.754735 470.845738,324.692758 C469.929304,327.497047 474.438162,329.925599 481.696323,326.094903 C489.650975,321.897632 491.346379,320.788747 492.895153,319.908969 C494.077354,319.230808 494.178162,318.341866 494.031532,316.939721 C493.938268,317.619107 493.51192,318.207055 492.895153,318.506825 L492.895153,318.506825 Z" id="Path" fill="#4C4C4C"></path>
                <path d="M557.705404,211.476435 C557.705404,211.476435 559.620752,233.86493 540.366462,240.747354 C521.112173,247.629777 501.280529,259.809192 501.280529,259.809192 L494.059025,314.327883 C492.490802,315.77819 490.410758,316.546257 488.276323,316.463175 C485.915509,316.459379 483.658345,315.492968 482.02624,313.787187 C482.02624,313.787187 477.563203,272.501811 480.028412,254.667994 C482.493621,236.834178 509.565097,215.838663 509.565097,215.838663 L557.705404,211.476435 Z" id="Path" fill="#164072"></path>
                <path d="M492.125348,199.608607 C492.125348,199.608607 489.980891,132.479777 510.454039,124.644262 C530.927187,116.808747 549.686602,135.458189 557.69624,153.530279 C565.705877,171.602368 563.588914,203.017744 557.69624,214.748106 C529.607521,234.07571 491.32805,208.937911 492.125348,199.608607 Z" id="Path" fill="#E6F7FF"></path>
                <path d="M557.705404,153.530279 C549.695766,135.458189 530.936351,116.799582 510.463203,124.644262 C509.78864,124.907455 509.138524,125.229447 508.520362,125.606518 C523.59571,127.521866 536.41663,142.001532 542.675877,156.123788 C550.676351,174.195877 548.568552,205.657075 542.675877,217.332451 C539.982516,219.18628 537.07069,220.700676 534.006407,221.841309 C542.449196,221.982238 550.728331,219.50426 557.705404,214.748106 C563.598078,203.063565 565.705877,171.602368 557.705404,153.530279 Z" id="Path" fill="#FFFFFF"></path>
                <path d="M504.689666,94.7226741 C504.689666,94.7226741 499.585125,102.89727 504.167298,120.657772 C507.833036,135.045794 508.437883,143.000446 514.440529,143.614457 C520.443175,144.228468 538.423621,139.829582 536.434958,124.855042 C538.222006,124.470139 541.887744,117.615209 539.000975,112.171588 C536.114206,106.727967 534.079721,112.675627 534.079721,112.675627 C534.079721,112.675627 534.198858,100.761978 525.831811,96.4730641 C517.464763,92.1841504 504.689666,94.7226741 504.689666,94.7226741 Z" id="Path" fill="url(#linearGradient-1)"></path>
                <path d="M524.420501,108.982396 C524.420501,108.29507 518.00546,117.395265 507.768886,114.481003 C511.287994,113.417939 512.103621,110.934401 512.103621,110.934401 C509.861657,113.681453 506.222525,114.867036 502.792646,113.967799 C504.14043,113.450197 505.396588,112.720016 506.51337,111.805014 C506.51337,111.805014 502.609359,113.866992 498.870306,112.373203 C501.225543,111.355961 500.877298,109.798022 500.877298,109.798022 C500.877298,109.798022 498.787827,111.887493 494.737187,108.350056 C496.386769,108.139276 496.221811,100.569526 502.178635,95.1167409 C508.13546,89.6639554 512.974234,88.3992758 520.947214,89.7464345 C518.995209,87.7211142 516.924067,86.5938997 514.110613,87.0429526 C517.299805,85.2650696 524.035599,88.4542618 526.024262,91.4051811 C532.219359,89.0224513 543.894735,93.1464067 540.04571,115.727354 C539.98156,115.159164 539.450028,111.484262 537.296407,110.787772 C535.142786,110.091281 533.264095,114.398524 533.758969,115.489081 C534.253844,116.579638 534.501281,123.013008 534.501281,123.013008 L531.669499,124.497632 C531.669499,124.497632 532.585933,118.898217 530.53312,117.211978 C528.480306,115.525738 524.805404,117.587716 524.420501,108.982396 Z" id="Path" fill="#112F5B"></path>
                <polygon id="Path" fill="#FFFFFF" points="455.917019 159.597075 468.059777 175.882117 507.255682 166.745265 505.001253 217.405766 469.35195 216.975042 457.612423 202.687827"></polygon>
                <polygon id="Path" fill="#E6F7FF" points="455.917019 152.751309 468.059777 175.882117 469.35195 216.975042 457.612423 202.687827"></polygon>
                <path d="M515.256156,194.183315 C515.256156,194.183315 514.055627,196.016184 511.498774,194.183315 C508.941922,192.350446 507.979666,189.170418 506.394234,187.997382 C506.201783,192.038858 506.394234,194.870641 501.381337,194.778997 C496.36844,194.687354 493.133426,193.990864 490.283315,194.192479 C487.433203,194.394095 490.833175,206.976741 505.477799,207.260836 C513.560752,206.765961 516.997382,202.247939 516.997382,202.247939 L515.256156,194.183315 Z" id="Path" fill="url(#linearGradient-2)"></path>
                <path d="M456.650167,178.182368 C456.650167,178.182368 459.344485,183.680975 461.012396,184.331643 C462.680306,184.982312 461.388134,194.146657 456.274429,191.195738 C451.160724,188.244819 453.561783,178.475627 456.650167,178.182368 Z" id="Path" fill="url(#linearGradient-3)"></path>
                <path d="M541.301226,151.431643 C541.301226,151.431643 542.21766,137.630139 551.87688,143.128747 C561.5361,148.627354 571.891811,181.325738 571.891811,185.742953 C571.891811,190.160167 526.913203,212.062953 514.541337,207.352479 C516.812341,202.559769 516.775231,196.993315 514.440529,192.231309 C527.994596,188.098189 545.370195,182.801198 548.348607,178.374819 C551.327019,173.94844 539.660808,170.071922 541.301226,151.431643 Z" id="Path" fill="#C7EBF9"></path>
                <polygon id="Path" fill="#55C3FE" points="266.123426 640.376964 63.4081058 523.348273 63.4081058 515.696045 332.088384 594.656045 332.088384 602.299109"></polygon>
                <polygon id="Path" fill="#35AFE5" points="266.123426 640.376964 63.4081058 523.348273 63.4081058 515.696045 266.141755 631.973259 266.141755 639.625487"></polygon>
                <polygon id="Path" fill="#97DFFF" points="266.123426 632.7339 63.4081058 515.696045 129.373064 477.618189 332.088384 594.656045"></polygon>
                <polygon id="Path" fill="#32A5C4" points="135.256574 499.035265 121.894958 491.318886 121.894958 489.687632 143.871058 492.427772 143.871058 494.068189"></polygon>
                <polygon id="Path" fill="#ADF8FF" points="135.256574 497.404011 121.894958 489.687632 130.509443 484.711393 143.871058 492.427772"></polygon>
                <polygon id="Path" fill="#32A5C4" points="149.562117 507.310669 136.191337 499.59429 136.191337 497.963036 158.176602 500.703175 158.176602 502.334429"></polygon>
                <polygon id="Path" fill="#ADF8FF" points="149.562117 505.679415 136.191337 497.963036 144.814986 492.986797 158.176602 500.703175"></polygon>
                <polygon id="Path" fill="#32A5C4" points="163.86766 515.586072 150.49688 507.860529 150.49688 506.229276 172.491309 508.969415 172.491309 510.609833"></polygon>
                <polygon id="Path" fill="#ADF8FF" points="163.86766 513.945655 150.49688 506.229276 159.120529 501.253036 172.491309 508.969415"></polygon>
                <polygon id="Path" fill="#32A5C4" points="178.173203 523.852312 164.802423 516.135933 164.802423 514.50468 186.787688 517.235655 186.787688 518.876072"></polygon>
                <polygon id="Path" fill="#ADF8FF" points="178.173203 522.221058 164.802423 514.50468 173.426072 509.52844 186.787688 517.235655"></polygon>
                <polygon id="Path" fill="#32A5C4" points="192.478747 532.118552 179.107967 524.411337 179.107967 522.770919 201.093231 525.511058 201.093231 527.151476"></polygon>
                <polygon id="Path" fill="#ADF8FF" points="192.478747 530.487298 179.107967 522.770919 187.731616 517.79468 201.093231 525.511058"></polygon>
                <polygon id="Path" fill="#32A5C4" points="206.78429 540.393955 193.41351 532.677577 193.41351 531.037159 215.398774 533.786462 215.398774 535.417716"></polygon>
                <polygon id="Path" fill="#ADF8FF" points="206.78429 538.753538 193.41351 531.037159 202.037159 526.060919 215.398774 533.786462"></polygon>
                <polygon id="Path" fill="#32A5C4" points="221.080669 548.660195 207.719053 540.952981 207.719053 539.312563 229.704318 542.052702 229.704318 543.683955"></polygon>
                <polygon id="Path" fill="#ADF8FF" points="221.080669 547.028942 207.719053 539.312563 216.342702 534.336323 229.704318 542.052702"></polygon>
                <polygon id="Path" fill="#32A5C4" points="235.386212 556.935599 222.024596 549.21922 222.024596 547.578802 244.009861 550.318942 244.009861 551.959359"></polygon>
                <polygon id="Path" fill="#ADF8FF" points="235.386212 555.295181 222.024596 547.578802 230.648245 542.611727 244.009861 550.318942"></polygon>
                <polygon id="Path" fill="#32A5C4" points="249.691755 565.201838 236.330139 557.494624 236.330139 555.854206 258.315404 558.594345 258.315404 560.225599"></polygon>
                <polygon id="Path" fill="#ADF8FF" points="249.691755 563.570585 236.330139 555.854206 244.944624 550.877967 258.315404 558.594345"></polygon>
                <polygon id="Path" fill="#32A5C4" points="263.997298 573.477242 250.635682 565.760864 250.635682 564.120446 272.620947 566.860585 272.620947 568.501003"></polygon>
                <polygon id="Path" fill="#ADF8FF" points="263.997298 571.845989 250.635682 564.120446 259.250167 559.144206 272.620947 566.860585"></polygon>
                <polygon id="Path" fill="#32A5C4" points="278.302841 581.743482 264.932061 574.027103 264.932061 572.39585 286.92649 575.135989 286.92649 576.767242"></polygon>
                <polygon id="Path" fill="#ADF8FF" points="278.302841 580.112228 264.932061 572.39585 273.55571 567.41961 286.92649 575.135989"></polygon>
                <polygon id="Path" fill="#32A5C4" points="292.608384 590.018886 279.246769 582.302507 279.246769 580.662089 301.232033 583.411393 301.232033 585.042646"></polygon>
                <polygon id="Path" fill="#ADF8FF" points="292.608384 588.378468 279.246769 580.662089 287.861253 575.68585 301.232033 583.411393"></polygon>
                <polygon id="Path" fill="#32A5C4" points="306.913928 598.29429 293.543148 590.568747 293.543148 588.937493 315.528412 591.677632 315.528412 593.308886"></polygon>
                <polygon id="Path" fill="#ADF8FF" points="306.913928 596.653872 293.543148 588.937493 302.166797 583.961253 315.528412 591.677632"></polygon>
                <polygon id="Path" fill="#32A5C4" points="131.893259 510.124123 110.74195 497.752256 110.74195 496.111838 140.516908 503.51663 140.516908 505.147883"></polygon>
                <polygon id="Path" fill="#ADF8FF" points="131.893259 508.492869 110.74195 496.111838 119.365599 491.135599 140.516908 503.51663"></polygon>
                <polygon id="Path" fill="#32A5C4" points="146.198802 518.390362 132.828022 510.673983 132.828022 509.04273 154.813287 511.782869 154.813287 513.423287"></polygon>
                <polygon id="Path" fill="#ADF8FF" points="146.198802 516.759109 132.828022 509.04273 141.451671 504.06649 154.813287 511.782869"></polygon>
                <polygon id="Path" fill="#32A5C4" points="160.495181 526.665766 147.133565 518.949387 147.133565 517.318134 169.11883 520.058273 169.11883 521.689526"></polygon>
                <polygon id="Path" fill="#ADF8FF" points="160.495181 525.034513 147.133565 517.318134 155.757214 512.341894 169.11883 520.058273"></polygon>
                <polygon id="Path" fill="#32A5C4" points="174.800724 534.94117 161.439109 527.215627 161.439109 525.584373 183.424373 528.324513 183.424373 529.96493"></polygon>
                <polygon id="Path" fill="#ADF8FF" points="174.800724 533.300752 161.439109 525.584373 170.062758 520.608134 183.424373 528.324513"></polygon>
                <polygon id="Path" fill="#32A5C4" points="189.106267 543.207409 175.744652 535.491031 175.744652 533.859777 197.729916 536.599916 197.729916 538.23117"></polygon>
                <polygon id="Path" fill="#ADF8FF" points="189.106267 541.566992 175.744652 533.859777 184.359136 528.874373 197.729916 536.599916"></polygon>
                <polygon id="Path" fill="#32A5C4" points="203.420975 551.473649 190.050195 543.75727 190.050195 542.126017 212.03546 544.866156 212.03546 546.497409"></polygon>
                <polygon id="Path" fill="#ADF8FF" points="203.420975 549.842396 190.050195 542.126017 198.66468 537.149777 212.03546 544.866156"></polygon>
                <polygon id="Path" fill="#32A5C4" points="217.726518 559.749053 204.355738 552.032674 204.355738 550.392256 226.341003 553.14156 226.341003 554.772813"></polygon>
                <polygon id="Path" fill="#ADF8FF" points="217.726518 558.117799 204.355738 550.392256 212.979387 545.416017 226.341003 553.14156"></polygon>
                <polygon id="Path" fill="#32A5C4" points="232.022897 568.015292 218.652117 560.298914 218.652117 558.66766 240.646546 561.407799 240.646546 563.039053"></polygon>
                <polygon id="Path" fill="#ADF8FF" points="232.022897 566.384039 218.652117 558.66766 227.275766 553.691421 240.646546 561.407799"></polygon>
                <polygon id="Path" fill="#32A5C4" points="246.32844 576.290696 232.966825 568.574318 232.966825 566.9339 254.952089 569.674039 254.952089 571.314457"></polygon>
                <polygon id="Path" fill="#ADF8FF" points="246.32844 574.650279 232.966825 566.9339 241.581309 561.95766 254.952089 569.674039"></polygon>
                <polygon id="Path" fill="#32A5C4" points="260.633983 584.5661 247.272368 576.840557 247.272368 575.209304 269.257632 577.949443 269.257632 579.580696"></polygon>
                <polygon id="Path" fill="#ADF8FF" points="260.633983 582.925682 247.272368 575.209304 255.886852 570.233064 269.257632 577.949443"></polygon>
                <polygon id="Path" fill="#32A5C4" points="274.939526 592.83234 261.577911 585.106797 261.577911 583.475543 283.563175 586.215682 283.563175 587.8561"></polygon>
                <polygon id="Path" fill="#ADF8FF" points="274.939526 591.191922 261.577911 583.475543 270.192396 578.499304 283.563175 586.215682"></polygon>
                <polygon id="Path" fill="#32A5C4" points="295.705933 604.901783 275.87429 593.382201 275.87429 591.750947 304.329582 598.29429 304.329582 599.916379"></polygon>
                <polygon id="Path" fill="#ADF8FF" points="295.705933 603.261365 275.87429 591.750947 284.497939 586.774708 304.329582 598.29429"></polygon>
                <polygon id="Path" fill="#32A5C4" points="115.333287 513.560752 99.4331476 504.286435 99.4331476 502.655181 122.820557 506.284262 122.820557 507.915515"></polygon>
                <polygon id="Path" fill="#ADF8FF" points="115.828162 512.195265 99.4331476 502.655181 108.056797 497.678942 124.451811 507.219025"></polygon>
                <polygon id="Path" fill="#32A5C4" points="128.493287 521.157994 115.131671 513.441616 115.131671 511.810362 137.1261 514.550501 137.1261 516.181755"></polygon>
                <polygon id="Path" fill="#ADF8FF" points="128.493287 519.526741 115.131671 511.810362 123.75532 506.824958 137.1261 514.550501"></polygon>
                <polygon id="Path" fill="#32A5C4" points="142.807994 529.433398 129.437214 521.717019 129.437214 520.076602 151.431643 522.816741 151.431643 524.447994"></polygon>
                <polygon id="Path" fill="#ADF8FF" points="142.807994 527.792981 129.437214 520.076602 138.060864 515.100362 151.431643 522.816741"></polygon>
                <polygon id="Path" fill="#32A5C4" points="157.113538 537.699638 143.742758 529.983259 143.742758 528.352006 165.728022 531.092145 165.728022 532.723398"></polygon>
                <polygon id="Path" fill="#ADF8FF" points="157.113538 536.068384 143.742758 528.352006 152.366407 523.366602 165.728022 531.092145"></polygon>
                <polygon id="Path" fill="#32A5C4" points="171.409916 545.975042 158.048301 538.249499 158.048301 536.618245 180.033565 539.358384 180.033565 540.998802"></polygon>
                <polygon id="Path" fill="#ADF8FF" points="171.409916 544.334624 158.048301 536.618245 166.67195 531.642006 180.033565 539.358384"></polygon>
                <polygon id="Path" fill="#32A5C4" points="185.71546 554.241281 172.353844 546.524903 172.353844 544.893649 194.339109 547.633788 194.339109 549.265042"></polygon>
                <polygon id="Path" fill="#ADF8FF" points="185.71546 552.610028 172.353844 544.893649 180.977493 539.917409 194.339109 547.633788"></polygon>
                <polygon id="Path" fill="#32A5C4" points="200.030167 562.516685 186.659387 554.791142 186.659387 553.159889 208.644652 555.900028 208.644652 557.531281"></polygon>
                <polygon id="Path" fill="#ADF8FF" points="200.030167 560.876267 186.659387 553.159889 195.283036 548.183649 208.644652 555.900028"></polygon>
                <polygon id="Path" fill="#32A5C4" points="214.33571 570.782925 200.96493 563.066546 200.96493 561.435292 222.950195 564.175432 222.950195 565.806685"></polygon>
                <polygon id="Path" fill="#ADF8FF" points="214.33571 569.151671 200.96493 561.435292 209.588579 556.449889 222.950195 564.175432"></polygon>
                <polygon id="Path" fill="#32A5C4" points="228.641253 579.058329 215.261309 571.34195 215.261309 569.701532 237.255738 572.441671 237.255738 574.082089"></polygon>
                <polygon id="Path" fill="#ADF8FF" points="228.641253 577.417911 215.261309 569.701532 223.884958 564.725292 237.255738 572.441671"></polygon>
                <polygon id="Path" fill="#32A5C4" points="242.937632 587.324568 229.576017 579.608189 229.576017 577.967772 251.561281 580.707911 251.561281 582.348329"></polygon>
                <polygon id="Path" fill="#ADF8FF" points="242.937632 585.693315 229.576017 577.967772 238.190501 573.000696 251.561281 580.707911"></polygon>
                <polygon id="Path" fill="#32A5C4" points="257.243175 595.590808 243.88156 587.883593 243.88156 586.243175 265.866825 588.983315 265.866825 590.623733"></polygon>
                <polygon id="Path" fill="#ADF8FF" points="257.243175 593.959554 243.88156 586.243175 252.496045 581.266936 265.866825 588.983315"></polygon>
                <polygon id="Path" fill="#32A5C4" points="271.548719 603.866212 258.187103 596.140669 258.187103 594.509415 280.172368 597.249554 280.172368 598.880808"></polygon>
                <polygon id="Path" fill="#ADF8FF" points="271.548719 602.234958 258.187103 594.509415 266.801588 589.533175 280.172368 597.249554"></polygon>
                <polygon id="Path" fill="#32A5C4" points="284.397131 611.289331 272.483482 604.416072 272.483482 602.784819 293.02078 604.672674 293.02078 606.313092"></polygon>
                <polygon id="Path" fill="#ADF8FF" points="284.397131 609.658078 272.483482 602.784819 281.107131 597.808579 293.02078 604.672674"></polygon>
                <polygon id="Path" fill="#32A5C4" points="110.833593 523.971448 88.0418663 510.829777 88.0418663 509.189359 119.448078 517.363955 119.448078 518.995209"></polygon>
                <polygon id="Path" fill="#ADF8FF" points="110.833593 522.340195 88.0418663 509.189359 96.6655153 504.222284 119.448078 517.363955"></polygon>
                <polygon id="Path" fill="#32A5C4" points="125.139136 532.237688 111.768357 524.530474 111.768357 522.890056 133.753621 525.630195 133.753621 527.270613"></polygon>
                <polygon id="Path" fill="#ADF8FF" points="125.139136 530.606435 111.768357 522.890056 120.392006 517.913816 133.753621 525.630195"></polygon>
                <polygon id="Path" fill="#32A5C4" points="139.44468 540.513092 126.0739 532.796713 126.0739 531.156295 148.059164 533.896435 148.059164 535.536852"></polygon>
                <polygon id="Path" fill="#ADF8FF" points="139.44468 538.881838 126.0739 531.156295 134.697549 526.180056 148.059164 533.896435"></polygon>
                <polygon id="Path" fill="#32A5C4" points="153.750223 548.788496 140.379443 541.072117 140.379443 539.431699 162.364708 542.171838 162.364708 543.812256"></polygon>
                <polygon id="Path" fill="#ADF8FF" points="153.750223 547.148078 140.379443 539.431699 149.003092 534.45546 162.364708 542.171838"></polygon>
                <polygon id="Path" fill="#32A5C4" points="168.046602 557.054735 154.684986 549.338357 154.684986 547.697939 176.670251 550.447242 176.670251 552.078496"></polygon>
                <polygon id="Path" fill="#ADF8FF" points="168.046602 555.414318 154.684986 547.697939 163.299471 542.721699 176.670251 550.447242"></polygon>
                <polygon id="Path" fill="#32A5C4" points="182.352145 565.320975 168.990529 557.61376 168.990529 555.964178 190.975794 558.713482 190.975794 560.344735"></polygon>
                <polygon id="Path" fill="#ADF8FF" points="182.352145 563.689721 168.990529 555.964178 177.605014 550.997103 190.975794 558.713482"></polygon>
                <polygon id="Path" fill="#32A5C4" points="196.657688 573.596379 183.296072 565.88 183.296072 564.248747 205.281337 566.988886 205.281337 568.620139"></polygon>
                <polygon id="Path" fill="#ADF8FF" points="196.657688 571.955961 183.296072 564.248747 191.910557 559.263343 205.281337 566.988886"></polygon>
                <polygon id="Path" fill="#32A5C4" points="210.963231 581.862618 197.601616 574.14624 197.601616 572.514986 219.58688 575.255125 219.58688 576.886379"></polygon>
                <polygon id="Path" fill="#ADF8FF" points="210.963231 580.231365 197.601616 572.514986 206.225265 567.538747 219.58688 575.255125"></polygon>
                <polygon id="Path" fill="#32A5C4" points="225.268774 590.138022 211.907159 582.421643 211.907159 580.781226 233.892423 583.530529 233.892423 585.161783"></polygon>
                <polygon id="Path" fill="#ADF8FF" points="225.268774 588.506769 211.907159 580.781226 220.521643 575.804986 233.892423 583.530529"></polygon>
                <polygon id="Path" fill="#32A5C4" points="239.574318 598.413426 226.212702 590.687883 226.212702 589.05663 248.197967 591.796769 248.197967 593.428022"></polygon>
                <polygon id="Path" fill="#ADF8FF" points="239.574318 596.773008 226.212702 589.05663 234.827187 584.08039 248.197967 591.796769"></polygon>
                <polygon id="Path" fill="#32A5C4" points="253.879861 606.679666 240.509081 598.963287 240.509081 597.332033 262.50351 600.063008 262.50351 601.703426"></polygon>
                <polygon id="Path" fill="#ADF8FF" points="253.879861 605.039248 240.509081 597.332033 249.13273 592.34663 262.50351 600.063008"></polygon>
                <polygon id="Path" fill="#32A5C4" points="273.225794 617.713538 254.823788 607.229526 254.823788 605.598273 281.840279 611.09688 281.840279 612.737298"></polygon>
                <polygon id="Path" fill="#ADF8FF" points="273.225794 616.082284 254.823788 605.598273 263.438273 600.622033 281.840279 611.09688"></polygon>
                <polygon id="Path" fill="#32A5C4" points="93.128078 526.729916 76.9346797 517.235655 76.9346797 515.604401 101.760891 520.122423 101.760891 521.762841"></polygon>
                <polygon id="Path" fill="#ADF8FF" points="93.128078 525.098663 76.9346797 515.604401 85.5491643 510.628162 101.760891 520.122423"></polygon>
                <polygon id="Path" fill="#32A5C4" points="107.442786 535.00532 94.0720056 527.288942 94.0720056 525.657688 116.066435 528.397827 116.066435 530.029081"></polygon>
                <polygon id="Path" fill="#ADF8FF" points="107.442786 533.374067 94.0720056 525.657688 102.695655 520.672284 116.066435 528.397827"></polygon>
                <polygon id="Path" fill="#32A5C4" points="121.748329 543.27156 108.377549 535.555181 108.377549 533.923928 130.362813 536.664067 130.362813 538.29532"></polygon>
                <polygon id="Path" fill="#ADF8FF" points="121.748329 541.640306 108.377549 533.923928 117.001198 528.947688 130.362813 536.664067"></polygon>
                <polygon id="Path" fill="#32A5C4" points="207.297493 592.859833 122.683092 543.830585 122.683092 542.199331 215.921142 586.25234 215.921142 587.883593"></polygon>
                <polygon id="Path" fill="#ADF8FF" points="207.297493 591.228579 122.683092 542.199331 131.306741 537.213928 215.921142 586.25234"></polygon>
                <polygon id="Path" fill="#32A5C4" points="221.877967 601.171894 208.516351 593.455515 208.516351 591.815097 230.492451 594.564401 230.492451 596.195655"></polygon>
                <polygon id="Path" fill="#ADF8FF" points="221.877967 599.540641 208.516351 591.815097 217.130836 586.838858 230.492451 594.564401"></polygon>
                <polygon id="Path" fill="#32A5C4" points="236.18351 609.447298 222.81273 601.721755 222.81273 600.090501 244.807159 602.830641 244.807159 604.461894"></polygon>
                <polygon id="Path" fill="#ADF8FF" points="236.18351 607.80688 222.81273 600.090501 231.436379 595.114262 244.807159 602.830641"></polygon>
                <polygon id="Path" fill="#32A5C4" points="250.489053 617.713538 237.118273 609.997159 237.118273 608.356741 259.112702 611.09688 259.112702 612.737298"></polygon>
                <polygon id="Path" fill="#ADF8FF" points="250.489053 616.082284 237.118273 608.356741 245.741922 603.380501 259.112702 611.09688"></polygon>
                <polygon id="Path" fill="#32A5C4" points="262.008635 624.321031 251.423816 618.263398 251.423816 616.632145 270.62312 617.713538 270.62312 619.344791"></polygon>
                <polygon id="Path" fill="#ADF8FF" points="262.008635 622.689777 251.423816 616.632145 260.047465 611.655905 270.62312 617.713538"></polygon>
                <polygon id="Path" fill="#D6EAF2" style="mix-blend-mode: multiply;" points="419.745348 451.463148 419.745348 552.545877 505.624429 582.302507 527.059833 565.870836"></polygon>
                <polygon id="Path" fill="#97DFFF" points="419.745348 451.463148 456.925097 429.917772 496.377604 458.895432 459.207019 480.431643"></polygon>
                <polygon id="Path" fill="#55C3FE" points="459.197855 491.163092 496.377604 469.617716 496.377604 458.895432 459.207019 480.431643"></polygon>
                <polygon id="Path" fill="#97DFFF" points="459.197855 491.153928 496.377604 469.617716 505.661086 474.978858 468.490501 496.524234"></polygon>
                <polygon id="Path" fill="#55C3FE" points="468.481337 507.246518 505.661086 485.701142 505.661086 474.978858 468.490501 496.524234"></polygon>
                <polygon id="Path" fill="#97DFFF" points="468.481337 507.264847 505.661086 485.719471 514.944568 491.089777 477.773983 512.625989"></polygon>
                <polygon id="Path" fill="#55C3FE" points="477.764819 523.357437 514.944568 501.812061 514.944568 491.089777 477.773983 512.625989"></polygon>
                <polygon id="Path" fill="#97DFFF" points="477.764819 523.366602 514.944568 501.83039 524.22805 507.191532 487.057465 528.736908"></polygon>
                <polygon id="Path" fill="#55C3FE" points="487.057465 539.459192 524.22805 517.922981 524.22805 507.191532 487.057465 528.736908"></polygon>
                <polygon id="Path" fill="#97DFFF" points="487.057465 539.477521 524.22805 517.941309 533.520696 523.302451 496.350111 544.847827"></polygon>
                <polygon id="Path" fill="#55C3FE" points="496.340947 555.560947 533.520696 534.024735 533.520696 523.302451 496.350111 544.847827"></polygon>
                <polygon id="Path" fill="#97DFFF" points="496.340947 555.579276 533.520696 534.043064 542.804178 539.41337 505.633593 560.949582"></polygon>
                <polygon id="Path" fill="#55C3FE" points="505.624429 571.671866 542.804178 550.12649 542.804178 539.41337 505.633593 560.949582"></polygon>
                <polygon id="Path" fill="#97DFFF" points="505.624429 571.681031 542.804178 550.144819 552.08766 555.515125 514.917075 577.051337"></polygon>
                <polygon id="Path" fill="#55C3FE" points="514.917075 587.773621 552.08766 566.228245 552.08766 555.515125 514.917075 577.051337"></polygon>
                <polygon id="Path" fill="#35AFE5" points="496.340947 555.496797 496.340947 544.774513 487.048301 539.41337 487.048301 528.599443 477.783148 523.329944 477.783148 512.60766 468.490501 507.246518 468.490501 496.524234 459.207019 491.163092 459.207019 480.431643 419.745348 451.463148 419.745348 451.463148 505.624429 582.302507 514.935404 587.663649 514.935404 576.941365 505.624429 571.671866 505.624429 560.857939"></polygon>
                <path d="M267.864652,363.906992 L267.864652,409.536267 C267.864652,418.920557 274.068914,428.304847 286.468273,435.462201 C311.276156,449.786072 351.489304,449.786072 376.278858,435.462201 C388.687382,428.304847 394.882479,418.966379 394.882479,409.527103 L394.882479,363.906992 L267.864652,363.906992 Z" id="Path" fill="#0A253F"></path>
                <polygon id="Path" fill="#0B2D4F" points="328.93585 423.365265 220.072591 360.516184 220.072591 357.501114 437.799109 357.501114 437.799109 360.516184"></polygon>
                <polygon id="Path" fill="#164072" points="328.93585 420.350195 220.072591 357.501114 328.93585 294.652033 437.799109 357.501114"></polygon>
                <polygon id="Path" fill="#FFD629" points="389.099777 426.572786 385.333231 426.572786 385.333231 387.862591 328.09273 359.187354 329.778969 355.814875 389.099777 385.544011"></polygon>
                <path d="M336.753036,358.18844 C336.753036,360.259582 334.003733,361.945822 330.53961,361.945822 C327.075487,361.945822 324.326184,360.259582 324.326184,358.18844 C324.326184,356.117298 327.075487,354.421894 330.53961,354.421894 C334.003733,354.421894 336.753036,356.108134 336.753036,358.18844 Z" id="Path" fill="#FFD629"></path>
                <path d="M391.739109,443.884234 L391.739109,424.730752 C391.812859,423.119592 390.995308,421.598231 389.611,420.770605 C388.226692,419.942979 386.499576,419.942979 385.115267,420.770605 C383.730959,421.598231 382.913408,423.119592 382.987159,424.730752 L382.987159,443.884234 L391.739109,443.884234 Z" id="Path" fill="#FFF42C"></path>
                <path d="M111.942479,655.030752 C111.942479,655.030752 131.187604,654.590864 154.813287,632.7339 C178.438969,610.876936 197.25337,600.658691 197.25337,600.658691 L197.25337,593.996212 L263.520752,555.10273 L280.172368,544.023036 L279.686657,440.79585 L254.200613,463.981643 L252.367744,527.792981 L172.436323,579.88312 L111.942479,655.030752 Z" id="Path" fill="#D6EAF2" style="mix-blend-mode: multiply;"></path>
                <path d="M146.23546,631.817465 C141.974039,637.884262 118.256713,659.567103 111.255153,654.655014 L111.255153,654.655014 C104.253593,649.73376 116.616295,620.05961 120.877716,614.001978 L252.166128,427.140975 C256.418384,421.074178 265.555237,420.148579 272.556797,425.069833 L272.556797,425.069833 C279.558357,429.981922 281.785292,438.889666 277.523872,444.956462 L146.23546,631.817465 Z" id="Path" fill="#1D6BAA"></path>
                <path d="M272.602618,425.069833 C271.224796,424.102518 269.715735,423.337187 268.121253,422.797075 C271.182145,427.571699 271.512061,433.446045 268.432841,437.835766 L137.098607,624.696769 C133.817772,629.361421 119.044847,643.254568 109.20234,647.186072 C108.982396,650.705181 109.523092,653.436156 111.255153,654.655014 C118.256713,659.567103 141.974039,637.884262 146.23546,631.817465 L277.523872,444.956462 C281.766964,438.889666 279.558357,429.981922 272.602618,425.069833 Z" id="Path" fill="#155A93"></path>
                <path d="M125.459889,607.476964 L120.877716,614.001978 C116.616295,620.05961 104.253593,649.742925 111.255153,654.655014 C118.256713,659.567103 141.974039,637.884262 146.23546,631.817465 L150.817632,625.301616 L125.459889,607.476964 Z" id="Path" fill="#227CC6"></path>
                <path d="M143.092089,619.876323 L139.78376,624.586797 C135.52234,630.653593 116.790418,657.57844 109.779694,652.675515 C110.071554,653.463163 110.583719,654.15029 111.255153,654.655014 C118.256713,659.567103 141.974039,637.884262 146.23546,631.817465 L150.817632,625.301616 L143.092089,619.876323 Z" id="Path" fill="#1D76B2"></path>
                <polygon id="Path" fill="#164072" points="218.248886 534.418802 198.527214 520.571476 188.089025 513.230836 245.375348 431.695655 275.535209 452.892786"></polygon>
                <polygon id="Path" fill="#11385E" points="262.531003 443.746769 205.327159 525.171978 188.171504 513.120864 188.089025 513.230836 198.527214 520.571476 218.248886 534.418802 275.535209 452.892786"></polygon>
                <polygon id="Rectangle" fill="#0F2C49" transform="translate(256.297331, 448.200423) rotate(-54.910000) translate(-256.297331, -448.200423) " points="253.410562 429.770924 259.1841 429.770924 259.1841 466.629921 253.410562 466.629921"></polygon>
                <path d="M268.863565,448.200641 C268.863565,448.200641 283.526518,453.910028 273.042507,470.708273 C262.558496,487.506518 236.81585,514.623816 234.277326,525.171978 C231.738802,535.720139 221.722173,534.602089 221.447242,526.940696 C221.172312,519.279304 230.492451,511.058886 239.061114,499.704262 C247.629777,488.349638 273.830641,456.301922 263.942312,444.718189 L268.863565,448.200641 Z" id="Path" fill="#227CC6"></path>
                <polygon id="Path" fill="#FFFFFF" points="513.496602 5.20932724e-14 398.346602 45.0702507 447.999025 50.9812535"></polygon>
                <polygon id="Path" fill="#97DFFF" points="447.192563 50.8804457 454.872284 72.3708357 513.496602 -9.11632268e-14"></polygon>
                <polygon id="Path" fill="#55C3FE" points="463.651727 55.8291922 454.872284 72.3708357 513.496602 -9.11632268e-14"></polygon>
                <polygon id="Path" fill="#FFFFFF" points="513.496602 6.51165905e-14 497.990529 75.9174373 463.651727 55.8291922"></polygon>
                <path d="M444.15,73.1131476 L441.583983,70.9503621 C444.333287,67.6603621 445.918719,65.8458217 445.918719,65.8458217 L448.457242,68.0177716 C448.457242,68.0177716 446.917632,69.832312 444.15,73.1131476 Z" id="Path" fill="#35AFE5"></path>
                <path d="M482.383649,437.258412 C480.669916,437.258412 478.956184,437.258412 477.224123,437.258412 L477.279109,433.922591 C481.742145,433.995905 486.141031,433.977577 490.567409,433.849276 L490.659053,437.194262 C487.909749,437.221755 485.123788,437.258412 482.383649,437.258412 Z M463.798357,436.699387 C459.894345,436.479443 455.889526,436.167855 451.884708,435.782953 L450.427577,435.636323 L450.757493,432.309666 L452.196295,432.447131 C456.173621,432.822869 460.150947,433.134457 464.009136,433.363565 L463.798357,436.699387 Z M504.121476,436.45195 L503.864875,433.116128 C508.318747,432.777047 512.763454,432.31883 517.070696,431.768969 L517.492256,435.086462 C513.09337,435.645487 508.593677,436.103705 504.084819,436.45195 L504.121476,436.45195 Z M437.111783,434.060056 C432.621253,433.427716 428.167382,432.694568 423.850975,431.878942 L424.47415,428.598106 C428.735571,429.395404 433.143621,430.119387 437.579164,430.742563 L437.111783,434.060056 Z M530.780557,432.996992 L530.166546,429.706992 C534.537939,428.900529 538.900167,427.956602 543.12493,426.902702 L543.931393,430.14688 C539.605822,431.209944 535.179443,432.172201 530.7439,432.996992 L530.780557,432.996992 Z M410.727632,429.047159 C406.310418,427.97493 401.948189,426.774401 397.750919,425.482228 L398.740669,422.283872 C402.864624,423.557716 407.171866,424.739916 411.515766,425.802981 L410.727632,429.047159 Z M556.898942,426.471978 L555.881699,423.282786 C560.133955,421.926462 564.331226,420.42351 568.345209,418.810585 L569.582396,421.917298 C565.449276,423.557716 561.187855,425.088162 556.85312,426.471978 L556.898942,426.471978 Z M385.021643,421.083343 C380.769387,419.442925 376.59961,417.655877 372.640613,415.768022 L374.079415,412.752953 C377.965097,414.585822 382.052396,416.35454 386.231337,417.958301 L385.021643,421.083343 Z M581.90844,416.446184 L580.432981,413.440279 C584.428635,411.469944 588.332646,409.343816 592.035042,407.11688 L593.757939,409.98532 C589.936407,412.258078 585.949916,414.430028 581.862618,416.446184 L581.90844,416.446184 Z M360.671978,409.453788 C356.740474,407.135209 352.928106,404.642507 349.37234,402.039833 L351.342674,399.345515 C354.815961,401.874875 358.527521,404.303426 362.339889,406.567019 L360.671978,409.453788 Z M604.956769,402.49805 L602.97727,399.803733 C606.526593,397.207418 609.937356,394.426805 613.195515,391.473343 L615.44078,393.95688 C612.093478,396.980193 608.594269,399.830947 604.956769,402.49805 L604.956769,402.49805 Z M338.879164,393.498663 C335.5414,390.459183 332.383517,387.227861 329.42156,383.821114 L331.950919,381.621671 C334.817586,384.933877 337.877715,388.073569 341.115265,391.02429 L338.879164,393.498663 Z M624.962535,384.334318 L622.460669,382.116546 C625.367662,378.830487 628.07012,375.369014 630.552786,371.751671 L633.302089,373.648691 C630.742518,377.377132 627.957475,380.945659 624.962535,384.334318 L624.962535,384.334318 Z M321.173649,373.062173 C318.649595,369.312607 316.360234,365.410287 314.318719,361.377632 L317.297131,359.865515 C319.280389,363.777112 321.502356,367.563025 323.950446,371.201811 L321.173649,373.062173 Z M640.212006,361.982479 L637.224429,360.488691 C639.18539,356.578788 640.854791,352.529344 642.218997,348.373426 L645.399025,349.418162 C643.980108,353.727667 642.246433,357.92708 640.212006,361.982479 Z M308.939248,348.959944 C307.402795,344.709686 306.114562,340.373755 305.081058,335.974067 L308.334401,335.204262 C309.339701,339.47938 310.591193,343.692837 312.082618,347.823565 L308.939248,348.959944 Z M648.588217,336.184847 L645.279889,335.671643 C645.892842,331.730084 646.199239,327.746929 646.196323,323.757994 L646.196323,322.575794 L649.541309,322.529972 L649.541309,323.675515 C649.548902,327.854591 649.230237,332.027882 648.588217,336.157354 L648.588217,336.184847 Z M302.716657,322.649109 C302.175961,318.250223 301.846045,313.713872 301.745237,309.159192 L305.090223,309.085877 C305.191031,313.521421 305.502618,317.947799 306.006657,322.245877 L302.716657,322.649109 Z M644.885822,309.654067 C644.068771,305.371377 642.882132,301.167546 641.33922,297.089749 L644.473426,295.916713 C646.063655,300.176688 647.289957,304.563783 648.139164,309.030891 L644.885822,309.654067 Z M305.429304,295.907549 L302.093482,295.669276 C302.40507,291.252061 302.927437,286.734039 303.642256,282.261838 L306.941421,282.784206 C306.24493,287.118942 305.731727,291.536156 305.429304,295.861727 L305.429304,295.907549 Z M635.730641,285.304401 C633.53135,281.52352 631.053159,277.911917 628.316685,274.499638 L630.928524,272.410167 C633.768913,275.953329 636.342018,279.70271 638.626574,283.627326 L635.730641,285.304401 Z M309.571588,269.825822 L306.327409,269.028524 C307.399638,264.684624 308.655153,260.322396 310.075627,256.070139 L313.24649,257.124039 C311.862674,261.247994 310.616323,265.527744 309.571588,269.78 L309.571588,269.825822 Z M317.938635,244.761337 L314.868579,243.450836 C316.646462,239.271894 318.607632,235.202925 320.687939,231.262256 L323.638858,232.829359 C321.604373,236.60507 319.689025,240.619053 317.938635,244.678858 L317.938635,244.761337 Z M330.337994,221.410585 L327.52454,219.577716 C329.824791,216.02195 332.326657,212.24624 334.94766,208.397214 L337.696964,210.275905 C335.140111,214.134095 332.656574,217.873148 330.337994,221.410585 Z M345.30337,199.315348 L342.554067,197.4 C345.083426,193.795357 347.676936,190.157112 350.334596,186.485265 L353.0839,188.446435 C350.450678,192.106063 347.869387,195.729034 345.340028,199.315348 L345.30337,199.315348 Z M360.937744,177.669164 L358.243426,175.680501 C360.894977,172.106407 363.567911,168.529257 366.262228,164.949053 L368.929053,166.965209 C366.271393,170.508756 363.619842,174.076741 360.974401,177.669164 L360.937744,177.669164 Z M377.076156,156.334568 L374.42766,154.300084 C377.158635,150.738208 379.886555,147.20688 382.611421,143.7061 L385.250752,145.758914 C382.519777,149.241365 379.794912,152.766583 377.076156,156.334568 Z M393.489499,135.256574 L390.868496,133.185432 C393.685005,129.623556 396.455692,126.128886 399.180557,122.701421 L401.792396,124.790891 C399.061421,128.187809 396.284624,131.67026 393.462006,135.238245 L393.489499,135.256574 Z M410.168607,114.371031 L407.565933,112.263231 C410.480195,108.661643 413.293649,105.188357 415.997131,101.880028 L418.590641,103.987827 C415.865775,107.286992 413.049266,110.74195 410.141114,114.352702 L410.168607,114.371031 Z M427.06766,93.6504457 L424.483315,91.5243175 C427.608357,87.7394429 430.476797,84.2844847 433.024485,81.214429 L435.599666,83.3588858 C432.978663,86.4014485 430.156045,89.8472423 427.040167,93.632117 L427.06766,93.6504457 Z" id="Shape" fill="#35AFE5"></path>
                <path d="M619.234819,264.592981 C617.658552,263.108357 616.008969,261.632897 614.313565,260.212423 L616.467187,257.655571 C618.208412,259.112702 619.912981,260.633983 621.53507,262.164429 L619.234819,264.592981 Z" id="Path" fill="#35AFE5"></path>
                <path d="M101.760891,335.625822 L98.6908357,334.31532 C99.9782334,331.443473 101.415972,328.641413 102.998078,325.92078 L102.998078,332.729889 L101.760891,335.625822 Z" id="Path" fill="#1D6BAA"></path>
                <path d="M156.921086,445.378022 C154.831616,445.378022 152.66883,445.313872 150.506045,445.194735 L150.698496,441.858914 C155.124902,442.120076 159.563542,442.095587 163.986797,441.785599 L164.234234,445.112256 C161.860669,445.286379 159.404624,445.378022 156.921086,445.378022 Z M136.869499,443.66429 C132.337197,442.915057 127.869903,441.815085 123.507883,440.37429 L124.570947,437.203426 C128.759863,438.586075 133.049314,439.643119 137.401031,440.365125 L136.869499,443.66429 Z M177.834123,443.004457 L177.036825,439.760279 C181.303181,438.718756 185.454094,437.2512 189.427019,435.379721 L190.865822,438.394791 C186.689284,440.366522 182.322877,441.907968 177.834123,442.995292 L177.834123,443.004457 Z M110.934401,434.646574 C106.922275,432.255895 103.263925,429.31626 100.065487,425.912953 L102.512368,423.640195 C105.498569,426.808291 108.909639,429.547016 112.648134,431.778134 L110.934401,434.646574 Z M202.669499,431.05415 L200.580028,428.442312 C204.002969,425.706532 207.10227,422.588782 209.817688,419.149666 L212.438691,421.229972 C209.552925,424.862977 206.263148,428.155827 202.632841,431.044986 L202.669499,431.05415 Z M92.2024791,414.375042 C90.2064848,410.167933 88.7529944,405.724318 87.8769081,401.150891 L91.1485794,400.47273 C91.9680667,404.764873 93.3323722,408.934782 95.2083844,412.881253 L92.2024791,414.375042 Z M219.889304,409.582089 L216.910891,408.060808 C218.904245,404.118301 220.574576,400.020626 221.90546,395.808078 L225.094652,396.82532 C223.690607,401.207714 221.937662,405.470557 219.852646,409.572925 L219.889304,409.582089 Z M86.5664067,387.386045 L86.5664067,386.982813 C86.5746731,382.528748 86.8808346,378.080222 87.4828412,373.667019 L90.7911699,374.106908 C90.2049595,378.358909 89.8988216,382.644839 89.8747354,386.936992 L89.8747354,387.31273 L86.5664067,387.386045 Z M228.357159,383.472869 L225.067159,382.877187 C225.839927,378.494263 226.384412,374.074144 226.698412,369.634708 L230.034234,369.872981 C229.704917,374.433031 229.135941,378.9726 228.329666,383.472869 L228.357159,383.472869 Z M93.2838719,361.001894 L90.0305292,360.204596 C91.0752646,355.915682 92.358273,351.498468 93.8428969,347.081253 L97.0137604,348.144318 C95.5566295,352.479053 94.3011142,356.79546 93.2838719,361.001894 Z M227.019164,356.263928 C226.955014,351.938357 226.707577,347.429499 226.295181,342.883983 L229.621838,342.58156 C230.043398,347.163733 230.290836,351.800891 230.36415,356.208942 L227.019164,356.263928 Z M224.645599,329.568189 C223.967437,325.251783 223.142646,320.807075 222.18039,316.371532 L225.452061,315.665877 C226.423482,320.165571 227.28493,324.665265 227.944763,329.054986 L224.645599,329.568189 Z M219.000362,303.330669 C217.845655,299.060084 216.553482,294.734513 215.160501,290.445599 L218.340529,289.410028 C219.751838,293.753928 221.089833,298.134485 222.226212,302.450891 L219.000362,303.330669 Z M210.862423,277.606351 C209.496936,273.308273 208.232256,268.909387 207.095877,264.519666 L210.330891,263.676546 C211.448942,268.011281 212.704457,272.355181 214.051616,276.598273 L210.862423,277.606351 Z M204.025822,251.249694 C203.109387,246.81415 202.330418,242.305292 201.679749,237.833092 L204.978914,237.347382 C205.638747,241.755432 206.417716,246.209304 207.306657,250.589861 L204.025822,251.249694 Z M200.05766,224.315682 C199.6361,219.73351 199.352006,215.197159 199.196212,210.715794 L202.541198,210.596657 C202.687827,215.023036 202.971922,219.531894 203.384318,224.004095 L200.05766,224.315682 Z M202.486212,197.170891 L199.141226,197.088412 C199.269526,192.50624 199.535292,187.924067 199.956852,183.470195 L203.28351,183.781783 C202.871114,188.134847 202.605348,192.643705 202.486212,197.161727 L202.486212,197.170891 Z M204.997242,170.44766 L201.707242,169.897799 C202.467883,165.315627 203.411811,160.815933 204.511532,156.527019 L207.746546,157.351811 C206.674318,161.576574 205.757883,165.984624 204.997242,170.44766 Z M211.668886,144.576713 L208.525515,143.440334 C210.077625,139.143163 211.889394,134.944266 213.950808,130.866852 L216.92922,132.369805 C214.932752,136.339102 213.176154,140.424571 211.668886,144.604206 L211.668886,144.576713 Z M223.738329,120.960195 L220.989025,119.026518 C223.644441,115.255537 226.648271,111.742375 229.960919,108.533343 L232.279499,110.934401 C229.125008,114.001718 226.265408,117.358373 223.738329,120.960195 Z M305.786713,104.940919 C301.800396,102.998615 297.695826,101.309038 293.497326,99.8822006 L294.569554,96.711337 C298.899425,98.2042818 303.134984,99.9578767 307.253008,101.962507 L305.786713,104.940919 Z M242.681031,102.952256 L240.967298,100.083816 C244.959806,97.6957835 249.240457,95.8264633 253.705738,94.5210585 L254.622173,97.7377437 C250.436269,98.9734506 246.423902,100.734827 242.681031,102.979749 L242.681031,102.952256 Z M280.667242,96.5372145 C276.336515,95.7766269 271.938306,95.4694894 267.5439,95.6207799 L267.406435,92.2757939 C272.032286,92.1063759 276.663292,92.4134718 281.226267,93.1922284 L280.667242,96.5372145 Z" id="Shape" fill="#1D6BAA"></path>
                <path d="M323.363928,115.131671 C321.531058,113.894485 319.624875,112.693955 317.782841,111.557577 L319.533231,108.707465 C321.3661,109.862173 323.32727,111.090195 325.22429,112.373203 L323.363928,115.131671 Z" id="Path" fill="#1D6BAA"></path>
                <path d="M618.45585,480.688245 L609.190696,485.701142 L602.775655,482.209526 L540.668886,515.851838 C531.806964,520.653955 531.806964,528.434485 540.668886,533.264095 L541.466184,533.694819 C550.318942,538.496936 564.688635,538.496936 573.541393,533.694819 L618.492507,509.345153 L618.45585,480.688245 Z" id="Path" fill="#C4DDE8" style="mix-blend-mode: multiply;"></path>
                <polygon id="Path" fill="#AAAAAA" points="628.839053 497.568969 657.193538 481.201448 657.193538 473.61337 606.423064 484.628914"></polygon>
                <polygon id="Path" fill="#FCFCFC" points="628.839053 489.980891 657.193538 473.61337 634.777549 460.66415 606.423064 477.031671"></polygon>
                <polygon id="Path" fill="#AAAAAA" points="647.039443 476.35351 651.346685 473.879136 645.059944 470.250056 640.761866 472.733593"></polygon>
                <polygon id="Path" fill="#4F4F4F" points="645.059944 470.909889 641.330056 473.06351 640.761866 472.733593 645.059944 470.250056 651.346685 473.879136 650.769331 474.209053"></polygon>
                <polygon id="Path" fill="#AAAAAA" points="636.170529 470.085097 640.468607 467.60156 634.191031 463.972479 629.892953 466.456017"></polygon>
                <polygon id="Path" fill="#4F4F4F" points="634.191031 464.632312 630.461142 466.785933 629.892953 466.456017 634.191031 463.972479 640.468607 467.60156 639.900418 467.931476"></polygon>
                <path d="M547.129749,509.720891 L552.426741,514.687967 C552.729164,514.486351 553.031588,514.2939 553.343175,514.101448 L642.466435,484.839694 L642.466435,498.26546 L584.190362,531.916936 C575.878301,536.709889 562.406713,536.709889 554.094652,531.916936 L553.343175,531.477047 C549.045097,529.002674 546.973955,525.721838 547.129749,522.468496 L547.129749,522.468496 L547.129749,509.720891 Z" id="Path" fill="#EA4266"></path>
                <path d="M553.361504,500.675682 L611.683398,467.024206 L642.530585,484.839694 L584.190362,518.482006 C575.878301,523.284123 562.406713,523.284123 554.094652,518.482006 L553.343175,518.051281 C545.049443,513.249164 545.049443,505.468635 553.361504,500.675682 Z" id="Path" fill="#FE7386"></path>
                <path d="M558.81429,514.202256 C563.909666,517.144011 572.166741,517.144011 577.262117,514.202256 C582.357493,511.260501 582.357493,506.495042 577.262117,503.553287 C572.166741,500.611532 563.909666,500.611532 558.81429,503.553287 C553.718914,506.495042 553.728078,511.260501 558.81429,514.202256 Z" id="Path" fill="#FFB6C2"></path>
                <path d="M112.547326,99.9371866 C112.547326,99.9371866 112.309053,111.933315 118.577465,114.554318 C123.627019,113.54624 117.981783,100.624513 117.981783,100.624513 L112.547326,99.9371866 Z" id="Path" fill="#112F5B"></path>
                <path d="M189.207075,196.501894 C190.064139,195.996075 190.764976,195.263526 191.232396,194.38493 L187.007632,196.758496 C188.198997,196.639359 189.078774,196.547716 189.207075,196.501894 Z" id="Path" fill="#E2E2E2" style="mix-blend-mode: multiply;"></path>
                <path d="M204.969749,310.451365 L204.969749,310.451365 C204.883265,310.164512 204.753467,309.892554 204.584847,309.644903 C202.751978,306.987242 195.182228,301.094568 193.074429,299.463315 L193.248552,299.160891 C193.248552,299.160891 194.778997,258.636156 190.499248,241.141421 C188.932145,234.726379 183.167772,227.908106 176.431978,221.832145 L175.937103,209.918496 L176.954345,202.37624 L121.30844,233.535014 C131.627493,238.263816 143.907716,243.762423 143.907716,243.762423 C143.907716,243.762423 151.605766,319.899805 151.990669,320.193064 C151.779937,320.344142 151.635522,320.57061 151.587437,320.825404 C151.461438,321.59563 151.384911,322.373137 151.358329,323.153148 L151.358329,323.299777 C151.369644,323.535239 151.406518,323.768774 151.468301,323.996267 L151.468301,323.996267 C151.541133,324.210459 151.65299,324.409316 151.798217,324.582786 L151.908189,324.711086 C152.090816,324.905393 152.30074,325.072097 152.531365,325.205961 C154.080139,326.122396 155.775543,327.194624 163.730195,331.391894 C164.206741,331.639331 164.64663,331.86844 165.123175,332.070056 L165.563064,332.244178 L166.479499,332.583259 C166.644457,332.647409 166.800251,332.693231 166.956045,332.739053 L167.716685,332.968162 L168.193231,333.078134 L168.871393,333.215599 L169.32961,333.279749 L169.934457,333.3439 L170.365181,333.3439 L170.878384,333.3439 L171.29078,333.3439 L171.730669,333.279749 C171.863633,333.264932 171.995339,333.240428 172.124735,333.206435 L172.463816,333.114791 L172.857883,332.98649 L173.068663,332.885682 C173.208366,332.829629 173.34323,332.762198 173.471894,332.684067 C174.454454,332.19053 174.9324,331.055895 174.599109,330.008078 L174.599109,330.008078 C174.509246,329.720894 174.376382,329.448986 174.205042,329.201616 C172.491309,326.718078 165.737187,321.384429 163.152841,319.377437 L163.418607,319.111671 C163.418607,319.111671 163.372786,280.309833 160.898412,262.466852 C159.981978,255.850195 166.653621,261.971978 161.604067,255.721894 C169.503733,258.920251 174.764067,243.065933 174.764067,243.065933 L181.454039,302.414234 C181.567294,302.472266 181.683538,302.52427 181.802284,302.570028 C181.760094,302.904406 181.738669,303.241077 181.738134,303.578106 C181.738134,303.633092 181.738134,303.678914 181.738134,303.7339 C181.740449,303.970199 181.777503,304.204873 181.848106,304.43039 L181.848106,304.43039 C181.927209,304.641724 182.038494,304.839564 182.178022,305.016908 L182.287994,305.136045 C182.471124,305.336086 182.684497,305.506166 182.920334,305.640084 C184.469109,306.556518 186.155348,307.628747 194.119164,311.826017 C194.586546,312.073454 195.035599,312.293398 195.512145,312.495014 L195.942869,312.669136 C196.245292,312.797437 196.538552,312.916574 196.859304,313.017382 L197.33585,313.173175 C197.592451,313.255655 197.849053,313.338134 198.09649,313.402284 L198.573036,313.512256 L199.251198,313.649721 L199.709415,313.713872 L200.314262,313.778022 L201.230696,313.778022 C201.368162,313.778022 201.505627,313.778022 201.633928,313.778022 C201.762228,313.778022 201.936351,313.778022 202.082981,313.723036 L202.467883,313.649721 L202.816128,313.558078 L203.201031,313.429777 L203.411811,313.328969 C203.552755,313.269126 203.690414,313.201826 203.824206,313.127354 C204.813844,312.640027 205.300237,311.503813 204.969749,310.451365 L204.969749,310.451365 Z" id="Path" fill="#E2E2E2" style="mix-blend-mode: multiply;"></path>
                <path d="M191.956379,211.558914 C191.956379,211.558914 182.407131,212.337883 180.390975,220.200891 C178.787214,226.955014 176.074568,222.867716 176.633593,224.123231 C177.192618,225.378747 181.994735,234.827187 186.595237,230.648245 C191.195738,226.469304 197.949861,222.143733 195.338022,213.300139 C194.426599,212.372245 193.241099,211.761825 191.956379,211.558914 Z" id="Path" fill="#0B223D"></path>
                <path d="M166.002953,227.999749 C166.002953,227.999749 156.453705,228.769554 154.437549,236.632563 C152.833788,243.39585 152.769638,243.67078 153.328663,244.880474 C153.887688,246.090167 156.077967,251.222201 160.660139,247.043259 C165.242312,242.864318 174.608273,241.599638 171.98727,232.756045 C170.126908,231.133955 166.002953,227.999749 166.002953,227.999749 Z" id="Path" fill="#112F5B"></path>
                <path d="M149.479638,114.655125 C149.479638,114.655125 149.31468,112.959721 144.723343,123.132145 C140.132006,133.304568 151.138384,165.773844 153.759387,169.338774 C156.38039,172.903705 189.115432,182.938663 196.309443,171.822312 C191.818914,169.512897 196.153649,166.195404 195.273872,160.99922 C181.875599,165.673036 162.630474,157.617577 158.543175,154.226769 C151.724903,148.581532 161.824011,128.722396 149.479638,114.655125 Z" id="Path" fill="url(#linearGradient-4)"></path>
                <path d="M200.360084,279.833287 C200.360084,279.833287 211.531421,287.320557 213.666713,290.408942 C215.802006,293.497326 211.164847,296.823983 203.210195,292.617549 C195.255543,288.411114 193.560139,287.320557 192.011365,286.431616 C190.462591,285.542674 190.572563,281.262925 192.011365,278.678579 C193.138579,276.671588 200.360084,279.833287 200.360084,279.833287 Z" id="Path" fill="#FE7386"></path>
                <path d="M192.011365,285.001978 C193.560139,285.918412 195.255543,286.990641 203.210195,291.187911 C209.185348,294.340446 213.290975,293.259053 214.06078,291.187911 C214.977214,294.001365 210.468357,296.429916 203.210195,292.590056 C195.255543,288.392786 193.560139,287.293064 192.011365,286.404123 C190.829164,285.725961 190.728357,284.837019 190.874986,283.434875 C190.965082,284.115528 191.392409,284.704825 192.011365,285.001978 Z" id="Path" fill="#4C4C4C"></path>
                <path d="M116.469666,184.285822 C116.469666,184.285822 116.83624,206.747632 136.686212,211.632228 C156.536184,216.516825 182.507939,224.123231 182.507939,224.123231 L192.432925,280.942173 C192.432925,280.942173 195.814568,284.305487 198.463064,283.21493 C199.799666,282.638187 200.584383,281.23771 200.378412,279.79663 C200.378412,279.79663 201.753064,237.732284 198.078162,220.100084 C195.328858,207.068384 149.278022,187.420028 149.278022,187.420028 L116.469666,184.285822 Z" id="Path" fill="url(#linearGradient-5)"></path>
                <path d="M195.347187,213.300139 C184.716546,198.30727 159.60624,183.81844 159.60624,183.81844 L116.47883,184.285822 C116.47883,184.285822 116.845404,206.747632 136.695376,211.632228 C153.493621,215.774513 174.269192,226.16688 179.300418,228.494624 C179.456212,219.256964 186.457772,209.304485 195.347187,213.300139 Z" id="Path" fill="#112F5B"></path>
                <path d="M171.199136,299.371671 C171.199136,299.371671 181.142451,306.886435 183.277744,309.983983 C185.413036,313.081532 180.775877,316.399025 172.821226,312.192591 C164.866574,307.986156 163.17117,306.886435 161.622396,306.006657 C160.073621,305.12688 160.073621,300.416407 161.759861,297.42883 C162.877911,295.421838 171.199136,299.371671 171.199136,299.371671 Z" id="Path" fill="#FE7386"></path>
                <path d="M161.622396,304.577019 C163.17117,305.493454 164.866574,306.565682 172.821226,310.772117 C178.805543,313.915487 182.902006,312.834095 183.671811,310.772117 C184.588245,313.576407 180.088552,316.004958 172.821226,312.174262 C164.866574,307.976992 163.17117,306.868106 161.622396,305.988329 C160.440195,305.301003 160.339387,304.412061 160.486017,303.009916 C160.583898,303.687438 161.008835,304.27344 161.622396,304.577019 L161.622396,304.577019 Z" id="Path" fill="#4C4C4C"></path>
                <path d="M96.8213092,197.555794 C96.8213092,197.555794 94.905961,219.935125 114.151086,226.817549 C133.396212,233.699972 157.22351,242.396936 157.22351,242.396936 L161.888162,298.785153 C163.190812,300.490635 165.24241,301.454886 167.386769,301.369499 C171.345766,301.369499 171.208301,299.344178 171.208301,299.344178 C171.208301,299.344178 175.414735,258.553677 172.940362,240.692368 C170.465989,222.831058 144.97078,201.890529 144.97078,201.890529 L96.8213092,197.555794 Z" id="Path" fill="url(#linearGradient-6)"></path>
                <path d="M171.968942,232.765209 C164.637465,217.185822 144.961616,201.908858 144.961616,201.908858 L96.8213092,197.519136 C96.8213092,197.519136 94.905961,219.935125 114.151086,226.817549 C131.068468,232.856852 150.524373,244.862145 154.474206,247.226546 C157.067716,238.703705 161.008384,230.245014 171.968942,232.765209 Z" id="Path" fill="#164072"></path>
                <path d="M162.392201,185.678802 C162.392201,185.678802 164.536657,118.559136 144.06351,110.714457 C123.590362,102.869777 104.821783,121.537549 96.8213092,139.609638 C88.8208357,157.681727 90.9286351,189.097103 96.8213092,200.818301 C124.910028,220.15507 163.198663,194.962284 162.392201,185.678802 Z" id="Path" fill="#FFA9B8"></path>
                <path d="M96.8213092,139.609638 C104.821783,121.537549 123.581198,102.878942 144.06351,110.714457 C144.737012,110.977119 145.384404,111.302349 145.997187,111.685877 C130.921838,113.601226 118.100919,128.071727 111.841671,142.193983 C103.841198,160.266072 105.948997,191.72727 111.841671,203.411811 C114.538466,205.262952 117.453367,206.774268 120.520306,207.911504 C112.077517,208.052433 103.798382,205.574455 96.8213092,200.818301 C90.9286351,189.13376 88.8208357,157.681727 96.8213092,139.609638 Z" id="Path" fill="#FFC0CF"></path>
                <path d="M149.80039,80.7928691 C149.80039,80.7928691 154.914095,88.9766295 150.331922,106.737131 C146.611198,121.115989 146.061337,129.079805 140.058691,129.647994 C134.056045,130.216184 116.066435,125.872284 118.064262,110.888579 C116.231393,110.503677 112.620641,103.657911 115.507409,98.2051253 C118.394178,92.7523398 120.419499,98.7091643 120.419499,98.7091643 C120.419499,98.7091643 120.300362,86.841337 128.667409,82.515766 C137.034457,78.190195 149.80039,80.7928691 149.80039,80.7928691 Z" id="Path" fill="url(#linearGradient-7)"></path>
                <path d="M130.097047,95.0617549 C130.097047,94.374429 136.512089,103.46546 146.748663,100.560362 C143.229554,99.4881337 142.413928,97.0137604 142.413928,97.0137604 C144.65831,99.762985 148.303084,100.945655 151.734067,100.037994 C150.383931,99.5235089 149.124741,98.7964582 148.004178,97.8843733 C148.004178,97.8843733 151.917354,99.9371866 155.656407,98.4525627 C153.292006,97.4353203 153.649415,95.8773816 153.649415,95.8773816 C153.649415,95.8773816 155.729721,97.9668524 159.789526,94.429415 C158.139944,94.2186351 158.304903,86.6488858 152.348078,81.1961003 C146.391253,75.7433148 141.552479,74.4786351 133.570334,75.8257939 C135.52234,73.7913092 137.593482,72.6640947 140.406936,73.122312 C137.226908,71.344429 130.491114,74.5336212 128.493287,77.475376 C122.298189,75.1018106 110.622813,79.225766 114.481003,101.797549 C114.535989,101.229359 115.076685,97.5544568 117.230306,96.8671309 C119.383928,96.179805 121.262618,100.468719 120.767744,101.559276 C120.272869,102.649833 120.034596,109.092368 120.034596,109.092368 L122.857214,110.567827 C122.857214,110.567827 121.94078,104.977577 124.002758,103.291337 C126.064735,101.605097 129.712145,103.667075 130.097047,95.0617549 Z" id="Path" fill="#112F5B"></path>
                <polygon id="Path" fill="#FFFFFF" points="198.600529 145.66727 186.466936 161.952312 147.271031 152.81546 149.516295 203.475961 185.174763 203.045237 196.91429 188.758022"></polygon>
                <polygon id="Path" fill="#E6F7FF" points="198.600529 138.821504 186.466936 161.952312 185.174763 203.045237 196.91429 188.758022"></polygon>
                <path d="M197.876546,164.252563 C197.876546,164.252563 195.127242,169.75117 193.505153,170.401838 C191.883064,171.052507 193.129415,180.216852 198.252284,177.275097 C203.375153,174.333343 200.955766,164.545822 197.876546,164.252563 Z" id="Path" fill="url(#linearGradient-8)"></path>
                <path d="M164.243398,180.262674 C161.393287,180.070223 158.149109,180.757549 153.145376,180.849192 C148.141643,180.940836 148.315766,178.099889 148.123315,174.076741 C146.547047,175.249777 145.584791,178.402312 143.027939,180.25351 C140.471086,182.104708 139.261393,180.25351 139.261393,180.25351 L138.720696,180.656741 C120.584457,177.458384 107.781866,172.958691 104.904262,168.651448 C102.026657,164.344206 110.036295,150.881783 110.74195,138.821504 C110.74195,138.821504 112.354875,123.700334 102.649833,129.198942 C92.9447911,134.697549 89.7006128,173.435237 89.7006128,177.861616 C89.7006128,182.287994 122.224875,188.409777 139.2339,189.958552 C142.207926,191.806095 145.559082,192.961774 149.039749,193.340195 C163.693538,193.0561 167.09351,180.46429 164.243398,180.262674 Z" id="Path" fill="url(#linearGradient-9)"></path>
                <path d="M113.216323,137.501838 C113.216323,137.501838 112.354875,123.709499 102.649833,129.208106 C97.6735933,132.030724 92.5690529,146.886128 88.7108635,156.536184 C94.096859,160.49325 100.332102,163.1386 106.920418,164.261727 C111.750007,156.213208 113.95071,146.859417 113.216323,137.501838 L113.216323,137.501838 Z" id="Path" fill="#FC88A1"></path>
                <path d="M156.407883,86.6672145 C156.407883,86.6672145 155.757214,96.5463788 114.251894,100.624513 C112.841751,98.8023341 111.983093,96.6143452 111.777521,94.3194429 C111.007716,89.0132869 112.00663,82.5799164 113.33546,80.0322284 C115.287465,76.2748468 114.810919,71.1153203 112.474011,68.7509192 C110.137103,66.3865181 110.641142,61.2269916 118.742423,64.8469081 C126.843705,68.4668245 147.738412,65.7175209 156.407883,86.6672145 Z" id="Path" fill="#FC88A1"></path>
                <path d="M111.86,94.5302228 C111.86,94.5302228 119.585543,96.7571588 135.155766,93.9345404 C150.725989,91.111922 154.602507,85.6866295 154.648329,83.0289694 C159.083872,83.1664345 158.497354,89.3798607 157.901671,90.4795822 C155.674735,94.5943733 131.939081,104.867604 114.426017,101.476797 C110.906908,99.5706128 110.888579,95.886546 111.86,94.5302228 Z" id="Path" fill="#FFFFFF"></path>
                <circle id="Oval" fill="#FFFFFF" cx="110.732786" cy="64.0129526" r="5.92933148"></circle>
            </g>
        </g>
    </g>
</svg>